<?xml version="1.0" standalone="no"?>
<!DOCTYPE svg PUBLIC "-//W3C//DTD SVG 20010904//EN"
 "http://www.w3.org/TR/2001/REC-SVG-20010904/DTD/svg10.dtd">
<svg version="1.0" xmlns="http://www.w3.org/2000/svg"
 width="1920.000000pt" height="1920.000000pt" viewBox="0 0 1920.000000 1920.000000"
 preserveAspectRatio="xMidYMid meet">
<metadata>
Created by potrace 1.14, written by Peter Selinger 2001-2017
</metadata>
<g transform="translate(0.000000,1920.000000) scale(0.100000,-0.100000)"
fill="#000000" stroke="none">
<path d="M8489 11596 c-2 -2 -24 -6 -49 -10 -76 -10 -112 -17 -190 -36 -678
-171 -1062 -629 -1075 -1282 -4 -237 50 -437 165 -609 60 -89 212 -237 317
-307 123 -82 197 -124 443 -249 236 -121 298 -156 380 -219 137 -104 202 -207
208 -330 4 -65 1 -81 -26 -139 -67 -141 -255 -261 -459 -291 -26 -4 -261 -8
-520 -8 l-473 -1 0 -276 0 -276 793 2 c837 1 824 1 1037 51 445 105 790 336
939 630 30 60 70 157 76 184 2 8 9 38 15 65 35 148 33 386 -5 562 -42 198
-124 345 -268 480 -100 93 -197 152 -502 303 -316 157 -409 215 -511 315 -107
106 -172 213 -213 350 -67 227 14 421 219 525 107 54 127 56 498 55 l342 0 1
35 c0 19 2 135 4 258 l3 223 -573 -1 c-315 -1 -574 -3 -576 -4z"/>
<path d="M270 11566 c0 -2 20 -59 45 -127 25 -68 45 -128 45 -132 0 -5 6 -23
14 -40 8 -18 51 -138 96 -267 73 -212 121 -347 225 -640 18 -52 120 -340 225
-640 105 -300 235 -666 287 -815 52 -148 108 -306 123 -350 65 -185 329 -931
335 -947 6 -15 47 -16 518 -15 l511 2 7 25 c4 14 35 104 69 200 34 96 70 200
80 230 10 30 64 188 120 350 107 312 133 387 140 415 2 6 13 38 27 73 13 35
41 116 63 180 22 64 76 223 120 352 45 129 92 267 105 305 26 79 193 564 249
725 21 58 39 112 41 120 2 8 22 69 46 135 23 66 65 190 95 275 29 85 86 253
127 373 l75 217 -343 0 -343 0 -16 -47 c-8 -27 -31 -100 -50 -163 -19 -63 -78
-254 -131 -425 -53 -170 -98 -317 -100 -325 -4 -18 -120 -393 -143 -465 -8
-27 -16 -52 -17 -55 0 -3 -4 -14 -7 -25 -38 -121 -70 -230 -69 -230 1 0 -3
-13 -9 -30 -11 -26 -31 -93 -110 -350 -10 -33 -30 -98 -45 -145 -15 -47 -28
-89 -29 -95 -1 -5 -13 -41 -25 -80 -12 -38 -24 -77 -26 -85 -3 -15 -62 -203
-72 -230 -5 -14 -41 91 -174 515 -33 105 -64 199 -68 210 -5 11 -22 65 -39
120 -28 92 -151 479 -323 1020 -39 121 -83 261 -99 310 -32 104 -145 457 -167
528 l-15 47 -684 0 c-376 0 -684 -2 -684 -4z"/>
<path d="M4193 9580 l0 -1990 1382 0 1382 0 0 275 c0 189 -4 275 -11 278 -6 2
-342 3 -746 3 l-735 -1 0 577 0 578 25 1 c14 0 294 1 623 1 l597 1 0 236 0
236 -607 0 c-335 -1 -615 1 -623 3 -13 3 -15 83 -15 660 l0 657 698 1 c383 1
700 4 703 7 4 4 8 384 5 455 -1 9 -276 12 -1340 12 l-1338 0 0 -1990z"/>
<path d="M9789 11563 c-4 -38 0 -496 5 -500 3 -3 223 -6 488 -7 l483 -1 0
-1732 0 -1733 637 0 638 0 0 1734 0 1733 453 1 c248 0 459 1 468 1 15 1 16 28
16 256 l0 255 -1593 0 c-877 0 -1594 -3 -1595 -7z"/>
<path d="M13199 11563 c-1 -10 -1 -3933 0 -3955 1 -17 73 -18 1361 -18 l1360
0 0 278 0 277 -712 -1 c-392 0 -719 2 -725 4 -10 3 -13 128 -13 578 l0 574 33
1 c17 0 296 1 620 1 533 1 587 2 588 17 0 9 1 115 2 236 l2 220 -610 -1 c-335
0 -616 2 -622 4 -10 3 -13 145 -13 662 l0 657 673 1 c369 0 677 1 683 1 8 1
11 72 11 236 l0 235 -1319 0 c-725 0 -1318 -3 -1319 -7z"/>
<path d="M16139 11563 c-1 -10 -1 -3956 0 -3965 1 -5 626 -8 1389 -8 l1389 0
0 275 c0 190 -3 275 -11 278 -6 2 -332 3 -723 3 -707 -1 -713 -1 -714 19 0 11
-1 782 -1 1713 l-1 1692 -663 0 c-365 0 -664 -3 -665 -7z"/>
</g>
</svg>
